<?xml version="1.0"?>
<svg xmlns:rdf="http://www.w3.org/1999/02/22-rdf-syntax-ns#" xmlns="http://www.w3.org/2000/svg" xmlns:cc="http://web.resource.org/cc/" xmlns:dc="http://purl.org/dc/elements/1.1/" xmlns:svg="http://www.w3.org/2000/svg" id="svg3852" viewBox="0 0 198.4 323.35" version="1.0">
  <g id="layer1" transform="translate(-172 -180.94)">
    <g id="g3909">
      <path id="path3903" d="m179.71 503.79s0-17.86-1.42-34.28c-1.43-16.43-6.43-17.86-5.72-40 0.72-22.15 0-24.29 8.57-48.58 8.57-24.28 11.72-30 21.72-48.57s14.28-25.71 14.28-25.71l18.57-21.43 22.02 6.64 64.8 57.98s17.03 31.85 28.04 48.81c10.55 16.24 11.43 2.86 11.43 2.86s7.14 7 0.51 50.85c-6.61 43.71 0.47 25.82 4.04 38.68 3.57 12.85 3.35 11.74 3.35 11.74l-190.19 1.01z" stroke="#000" stroke-width="1px" fill-rule="evenodd"/>
      <path id="path3905" fill-rule="evenodd" fill="#fff" d="m238.57 279.51c-6.61-6.34-8.21-24.29-8.21-24.29s-2.83-26.32-1.79-34.29c0.98-7.5 5.72-14.28 5.72-14.28s3.21-12.86 12.5-18.57c9.28-5.72 8.92-4.29 24.64-4.29 15.71 0 21.43-2.86 37.14 0 15.72 2.86 22.53 5.8 25.72 11.43 3.03 5.36 9.1 21.43 9.28 32.86s1.43 10 1.43 10l1.07 9.64 1.43 8.57 3.21 5.72 3.58 2.5 1.42 4.28-0.35 2.86-2.5 1.78-2.86 0.72-2.14 0.36-1.07 0.35 1.78 2.5 2.14 2.86 1.08 2.86 0.35 7.14-1.78 2.14h-6.43l-2.86 4.29-1.78 2.14 0.35 4.29 0.72 2.14-1.07 2.86-1.08 2.14-0.71 1.43-4.29 1.43-2.5-0.36-3.92-0.36-2.15 2.5-3.21 3.22-5.36 0.35h-6.78l-1.08 1.43s22.68 28.31 33.58 45.72c10.89 17.41 10 23.93 10 23.93l-50.48-55.91-11.7-13.02-13.54-8.93-15.36-16.07-13.21-8.57-6.43-3.58s4.13 2.43-2.5-3.92z"/>
      <path id="path3907" opacity=".99" d="m235.33 203.67c-10.2 17.63-6.54 37.69-4.05 57.01 1.27 7.57 3.53 15.44 9.36 20.8 1.35 1.72 2.62 3.4 4.74 4.24 5.34 3.39 10.88 6.59 15.96 10.31 7.84 8.47 6.01 8.4 14.48 16.22 15.38 15.96 13.06 0.34 28.47 16.27 6.51 6.66-9.57-16.33-2.96-9.94 3.23-3.21 8.53 3.63 7.05 1.34 0.31-2.1 3.35-1.14 4.79-1.53 2.7-0.13 5.4-0.19 8.09-0.31 1.89-1.95 3.77-3.9 5.65-5.85 3.61 0.51 8.21 1.48 11.01-1.52 1.49-2.52 2.83-5.54 1.55-8.44-1.1-3.82 2.41-6.44 4-9.47 1.3-1.07 3.67-0.16 5.41-0.49 2.62 0.22 3.59-2.88 3.07-5 0.15-3.8-1.23-7.42-3.67-10.3-0.38-0.77-2.24-2.53-0.24-2.51 2.64-0.83 7-0.84 7.55-4.27 0.14-2.93-1.01-6.13-3.72-7.45-5.56-5.39-6.14-13.79-7.19-20.96-0.32-3.39 1.85-6.88 1.97-10.35-0.31-12.6-6.55-24.69-12.37-35.84-3.84-6.66-11.88-8.67-18.83-10.32-27.24-9.57-60.76-3.39-80.12 18.36z"/>
    </g>
  </g>
  <metadata>
    <rdf:RDF>
      <cc:Work>
        <dc:format>image/svg+xml</dc:format>
        <dc:type rdf:resource="http://purl.org/dc/dcmitype/StillImage"/>
        <cc:license rdf:resource="http://creativecommons.org/licenses/publicdomain/"/>
        <dc:publisher>
          <cc:Agent rdf:about="http://openclipart.org/">
            <dc:title>Openclipart</dc:title>
          </cc:Agent>
        </dc:publisher>
        <dc:title>Man from side</dc:title>
        <dc:date>2008-05-16T18:26:04</dc:date>
        <dc:description>clip art, clipart, contour, contour, image, man, man, media, outline, outline, person, person, png, public domain, silhouette, silhouette, svg, </dc:description>
        <dc:source>http://openclipart.org/detail/16781/man-from-side-by-stefanvonhalenbach-16781</dc:source>
        <dc:creator>
          <cc:Agent>
            <dc:title>StefanvonHalenbach</dc:title>
          </cc:Agent>
        </dc:creator>
        <dc:subject>
          <rdf:Bag>
            <rdf:li>clip art</rdf:li>
            <rdf:li>clipart</rdf:li>
            <rdf:li>contour</rdf:li>
            <rdf:li>image</rdf:li>
            <rdf:li>man</rdf:li>
            <rdf:li>media</rdf:li>
            <rdf:li>outline</rdf:li>
            <rdf:li>person</rdf:li>
            <rdf:li>png</rdf:li>
            <rdf:li>public domain</rdf:li>
            <rdf:li>silhouette</rdf:li>
            <rdf:li>svg</rdf:li>
          </rdf:Bag>
        </dc:subject>
      </cc:Work>
      <cc:License rdf:about="http://creativecommons.org/licenses/publicdomain/">
        <cc:permits rdf:resource="http://creativecommons.org/ns#Reproduction"/>
        <cc:permits rdf:resource="http://creativecommons.org/ns#Distribution"/>
        <cc:permits rdf:resource="http://creativecommons.org/ns#DerivativeWorks"/>
      </cc:License>
    </rdf:RDF>
  </metadata>
</svg>
